<?xml version="1.0" standalone="no"?>
<!DOCTYPE svg PUBLIC "-//W3C//DTD SVG 20010904//EN"
 "http://www.w3.org/TR/2001/REC-SVG-20010904/DTD/svg10.dtd">
<svg version="1.0" xmlns="http://www.w3.org/2000/svg"
 width="512.000000pt" height="512.000000pt" viewBox="0 0 512.000000 512.000000"
 preserveAspectRatio="xMidYMid meet">

<g transform="translate(0.000000,512.000000) scale(0.100000,-0.100000)"
fill="#000000" stroke="none">
<path d="M2380 5114 c-19 -2 -78 -9 -130 -14 -330 -36 -695 -160 -990 -336
-375 -224 -680 -529 -904 -904 -175 -292 -291 -632 -338 -990 -16 -123 -16
-497 0 -620 47 -358 163 -698 338 -990 224 -375 529 -680 904 -904 290 -173
639 -293 980 -336 133 -17 375 -23 493 -12 95 8 113 13 149 38 106 75 114 221
18 308 -55 50 -92 57 -260 49 -951 -40 -1831 573 -2129 1483 -96 294 -130 585
-101 875 25 250 102 523 209 743 207 424 572 790 996 997 524 255 1136 287
1685 86 429 -157 802 -450 1055 -827 l63 -95 -308 -5 -308 -5 -43 -30 c-117
-83 -117 -247 0 -330 l43 -30 360 -3 c407 -3 466 3 590 61 182 86 313 252 353
448 13 63 15 139 13 431 l-3 355 -27 40 c-41 62 -90 88 -168 88 -78 0 -127
-26 -168 -88 l-27 -40 -3 -310 -3 -309 -51 74 c-88 125 -158 209 -278 332
-394 405 -888 658 -1455 747 -124 19 -467 33 -555 23z"/>
<path d="M2492 4349 c-45 -13 -108 -80 -121 -126 -7 -25 -11 -297 -11 -808 l0
-770 -380 -380 c-256 -257 -384 -392 -395 -417 -29 -71 -13 -161 38 -217 52
-56 151 -76 225 -46 41 18 820 787 875 865 l32 45 0 865 0 865 -24 38 c-47 76
-151 113 -239 86z"/>
<path d="M4839 2250 c-49 -9 -104 -44 -128 -83 -28 -45 -81 -247 -81 -308 0
-96 60 -169 159 -190 44 -9 60 -8 96 6 95 36 118 72 163 250 31 125 32 169 2
225 -39 75 -123 115 -211 100z"/>
<path d="M4390 1339 c-35 -14 -81 -60 -159 -159 -95 -118 -111 -180 -72 -265
33 -72 102 -115 183 -115 72 0 119 32 206 138 105 129 115 150 110 228 -4 70
-20 98 -82 148 -31 25 -47 31 -99 33 -34 2 -73 -2 -87 -8z"/>
<path d="M3670 691 c-46 -15 -245 -119 -269 -142 -95 -90 -70 -253 48 -316 76
-40 120 -33 270 42 136 68 166 95 190 164 23 71 5 140 -53 197 -54 55 -121 74
-186 55z"/>
</g>
</svg>
