<?xml version="1.0" standalone="no"?>
<!DOCTYPE svg PUBLIC "-//W3C//DTD SVG 20010904//EN"
 "http://www.w3.org/TR/2001/REC-SVG-20010904/DTD/svg10.dtd">
<svg version="1.0" xmlns="http://www.w3.org/2000/svg"
 width="512.000000pt" height="512.000000pt" viewBox="0 0 512.000000 512.000000"
 preserveAspectRatio="xMidYMid meet">

<g transform="translate(0.000000,512.000000) scale(0.100000,-0.100000)"
fill="#000000" stroke="none">
<path d="M595 5109 c-151 -22 -270 -84 -386 -199 -69 -68 -94 -102 -127 -170
-84 -171 -77 29 -77 -2180 0 -2209 -7 -2009 77 -2180 59 -120 178 -239 298
-298 171 -84 -29 -77 2180 -77 2209 0 2009 -7 2180 77 68 33 102 59 171 127
68 69 94 103 127 171 84 171 77 -29 77 2180 0 2209 7 2009 -77 2180 -59 120
-178 239 -298 298 -172 84 35 77 -2145 78 -1072 1 -1967 -2 -2000 -7z m948
-969 c200 -62 335 -282 298 -485 -50 -275 -326 -435 -587 -342 -91 33 -190
121 -235 208 -111 218 -24 485 193 595 95 48 222 57 331 24z m1964 -1011 c370
-51 574 -294 629 -749 10 -86 13 -273 14 -738 l0 -624 -29 -29 -29 -29 -286 0
-286 0 -32 29 -33 29 -5 614 c-5 591 -6 615 -26 675 -58 170 -154 243 -319
243 -167 0 -281 -91 -343 -274 l-27 -81 -5 -588 -5 -589 -33 -29 -32 -29 -276
0 -276 0 -29 29 -29 29 0 1011 0 1011 29 32 29 33 269 3 c254 2 270 1 301 -18
43 -26 52 -54 52 -157 l0 -85 40 51 c149 188 422 274 737 230z m-1822 -35 c68
-32 65 25 65 -1064 0 -851 -2 -985 -15 -1010 -31 -59 -35 -60 -322 -60 -182 0
-270 4 -288 12 -57 26 -55 -19 -55 1063 0 685 3 1003 11 1016 5 11 25 29 42
39 29 18 52 20 280 20 206 0 255 -3 282 -16z"/>
</g>
</svg>
